- 
http://www.Speed.Cd
 
http://www.Speed.Cd       the fast  and The Hottest Private Tracker on the net

Please Seed back to make the speed Faster!!
 ............ NFO .............
-[IMG]http://i.imgur.com/DUKM6id.jpg[/IMG]

Source: 720p.BluRay.x264-PFa
 
http://www.imdb.com/title/tt1313139/

The enduring friendship between the Walling and Ostroff families is tested when Nina, the prodigal Ostroff daughter, returns home for the holidays after a five-year absence and enters into an affair with David, head of the Walling family.

General
Complete name                            : The Oranges 2011 BRRip x264 AAC-OFFLiNE.mp4
Format                                   : MPEG-4
Format profile                           : Base Media
Codec ID                                 : isom
File size                                : 1.40 GiB
Duration                                 : 1h 30mn
Overall bit rate mode                    : Variable
Overall bit rate                         : 2 213 Kbps
Encoded date                             : UTC 2013-02-26 14:47:25
Tagged date                              : UTC 2013-02-26 14:47:25

Video
ID                                       : 1
Format                                   : AVC
Format/Info                              : Advanced Video Codec
Format profile                           : High@L4.1
Format settings, CABAC                   : Yes
Format settings, ReFrames                : 3 frames
Codec ID                                 : avc1
Codec ID/Info                            : Advanced Video Coding
Duration                                 : 1h 30mn
Bit rate mode                            : Variable
Bit rate                                 : 1 931 Kbps
Maximum bit rate                         : 40.0 Mbps
Width                                    : 720 pixels
Height                                   : 400 pixels
Display aspect ratio                     : 16:9
Frame rate mode                          : Constant
Frame rate                               : 23.976 fps
Color space                              : YUV
Chroma subsampling                       : 4:2:0
Bit depth                                : 8 bits
Scan type                                : Progressive
Bits/(Pixel*Frame)                       : 0.280
Stream size                              : 1.22 GiB (87%)
Writing library                          : x264 core 129 r2245 bc13772

Audio
ID                                       : 2
Format                                   : AAC
Format/Info                              : Advanced Audio Codec
Format profile                           : LC
Codec ID                                 : 40
Duration                                 : 1h 30mn
Bit rate mode                            : Variable
Bit rate                                 : 282 Kbps
Maximum bit rate                         : 389 Kbps
Channel(s)                               : 6 channels
Channel positions                        : Front: L C R, Side: L R, LFE
Sampling rate                            : 48.0 KHz
Compression mode                         : Lossy
Stream size                              : 183 MiB (13%)
Language                                 : English
Encoded date                             : UTC 2013-02-26 10:35:02
Tagged date                              : UTC 2013-02-26 14:48:04

[IMG]http://i.imgur.com/sh3Zn1d.png[/IMG]
[IMG]http://i.imgur.com/TMezINK.png[/IMG]
[IMG]http://i.imgur.com/ACNUEZ7.png[/IMG]
[IMG]http://i.imgur.com/fk5JoMv.png[/IMG]
[IMG]http://i.imgur.com/5t0MuBi.png[/IMG]

Greets: To Our Friends